PathFileType	4	(X/Y/Z)	C:/Users/opensim2020/Desktop/walking_exp_matlab/subject02_walking06_straight_03.trc																																																																																																																									
DataRate	CameraRate	NumFrames	NumMarkers	Units	OrigDataRate	OrigDataStartFrame	OrigNumFrames																																																																																																																					
100	100	7	41	mm	100	2062	223																																																																																																																					
Frame#	Time	LFHD			RFHD			LBHD			RBHD			C7			T10			CLAV			STRN			RBAK			LSHO			LUPA			LELB			LFRM			LWRA			LWRB			LFIN			RSHO			RUPA			RELB			RFRM			RWRA			RWRB			RFIN			LASI			RASI			LPSI			RPSI			LTHI			LKNE			LTIB			LANK			LHEE			LTOE			RTHI			RKNE			RTIB			RANK			RHEE			RTOE			*39			*40		
		X1	Y1	Z1	X2	Y2	Z2	X3	Y3	Z3	X4	Y4	Z4	X5	Y5	Z5	X6	Y6	Z6	X7	Y7	Z7	X8	Y8	Z8	X9	Y9	Z9	X10	Y10	Z10	X11	Y11	Z11	X12	Y12	Z12	X13	Y13	Z13	X14	Y14	Z14	X15	Y15	Z15	X16	Y16	Z16	X17	Y17	Z17	X18	Y18	Z18	X19	Y19	Z19	X20	Y20	Z20	X21	Y21	Z21	X22	Y22	Z22	X23	Y23	Z23	X24	Y24	Z24	X25	Y25	Z25	X26	Y26	Z26	X27	Y27	Z27	X28	Y28	Z28	X29	Y29	Z29	X30	Y30	Z30	X31	Y31	Z31	X32	Y32	Z32	X33	Y33	Z33	X34	Y34	Z34	X35	Y35	Z35	X36	Y36	Z36	X37	Y37	Z37	X38	Y38	Z38	X39	Y39	Z39	X40	Y40	Z40	X41	Y41	Z41
																																																																																																																												
56	0.55	-375.33469	1747.98181	1418.94263	-375.62939	1730.07214	1562.53491	-500.36279	1665.47705	1409.94421	-513.88409	1645.68188	1551.54407	-547.80365	1526.18933	1491.76477	-601.98181	1254.94263	1521.5603	-410.52652	1459.67822	1469.9386	-359.47806	1286.80847	1485.58228	-599.08984	1360.50586	1575.44592	-498.61453	1492.99341	1308.22314	-544.33289	1297.5791	1231.50586	-568.93878	1160.79126	1219.99316	-586.15039	1032.52881	1197.94678	-549.33423	897.57819	1203.03162	-601.46271	910.87646	1184.91138	-594.56384	845.69226	1170.94141	-450.76855	1506.53015	1669.31836	-459.8241	1327.30933	1776.54919	-431.4104	1186.40662	1812.53821	-385.07553	1077.19336	1839.62256	-321.05093	956.79413	1826.6311	-362.92761	951.22876	1865.56873	-316.10913	895.60846	1869.87061	-387.46991	993.32886	1378.63818	-365.67697	980.66492	1631.37903	-588.85065	1034.45386	1470.98242	-581.987	1036.95459	1586.47974	-384.4465	689.33832	1310.00403	-350.22183	499.18219	1336.83582	-436.52054	330.94183	1361.73047	-468.66516	112.33856	1401.89673	-489.45215	89.71768	1463.51416	-337.89081	49.81714	1348.41284	-443.84595	671.20825	1691.59473	-462.45352	461.93454	1646.68225	-517.01025	280.31671	1652.75537	-551.24677	89.85742	1611.46313	-592.30054	36.28054	1557.82019	-401.2326	35.82804	1620.9989	-481.19659	1807.96008	1507.96216	2845.23828	1033.98718	-3360.36548
57	0.56	-365.81424	1747.41504	1417.69324	-365.73819	1729.99316	1561.32324	-491.84882	1665.02039	1408.91833	-504.07071	1645.64087	1551.04883	-538.28168	1525.92395	1491.6543	-592.78229	1254.82471	1521.41187	-400.95071	1459.27124	1469.83447	-350.10199	1286.41748	1486.18689	-590.07666	1360.83777	1575.97961	-489.50119	1492.00293	1308.16089	-537.2196	1297.06824	1232.22437	-563.82843	1160.6239	1220.07056	-582.38123	1032.56287	1198.13477	-546.55133	897.33203	1202.57703	-598.66412	911.14532	1185.36096	-592.56812	845.92114	1171.06311	-440.93237	1506.82214	1668.99744	-447.96893	1328.0752	1777.12793	-417.87622	1187.4021	1813.40198	-369.39859	1078.72437	1839.56702	-303.98401	959.42389	1825.9696	-345.14359	953.16461	1865.42517	-297.52722	898.33667	1869.06958	-377.82657	992.67694	1378.65613	-357.6517	979.3916	1631.94482	-579.76758	1034.32117	1470.15674	-573.61688	1036.72424	1585.69128	-372.64716	690.33966	1310.19031	-337.09961	499.24844	1337.76599	-414.66064	325.60629	1359.92944	-434.3472	104.70368	1397.0564	-453.99365	80.97434	1458.42627	-299.88623	49.64891	1343.9519	-439.36533	670.68927	1691.09021	-460.05045	461.19626	1645.99475	-515.47308	280.4079	1652.38708	-550.94733	90.05205	1611.21375	-592.07269	36.30183	1557.45667	-401.08206	35.78282	1620.9906	-471.42596	1807.53516	1506.75574	2845.16162	1033.81921	-3360.23218
58	0.57	-356.40714	1746.67554	1416.27014	-355.81833	1729.76538	1560.01782	-482.28836	1664.25293	1408.26697	-494.20004	1645.44043	1550.45703	-528.67413	1525.55872	1491.46252	-583.69745	1254.61597	1521.12854	-391.32614	1458.68542	1469.58362	-340.68634	1285.76489	1486.61877	-580.47229	1360.67957	1576.1095	-480.17776	1490.88684	1308.0144	-530.19879	1296.46191	1232.88147	-558.54193	1160.41211	1220.18005	-578.05066	1032.40625	1198.38477	-543.27716	897.02454	1202.33118	-595.67316	911.14337	1185.5459	-590.52295	846.16296	1171.10156	-431.14731	1507.08704	1668.74011	-436.44315	1328.51123	1777.55469	-404.34299	1188.2251	1814.15686	-353.93124	1080.18384	1839.60791	-286.64786	962.16077	1825.37439	-327.4281	955.08746	1865.16467	-278.95898	900.89178	1868.09448	-368.06842	992.14319	1378.55579	-349.53024	978.08533	1632.27454	-570.72797	1033.92957	1469.35022	-565.14075	1036.31604	1584.83948	-361.34604	690.84174	1310.37915	-324.54053	499.02478	1338.55994	-392.87192	320.40866	1357.92151	-399.46622	97.88776	1391.85498	-418.68527	73.03883	1453.44678	-262.10645	50.4591	1339.49426	-434.71909	670.22174	1690.5575	-457.07446	460.9292	1645.78821	-513.87811	280.48434	1652.05835	-550.65619	90.25723	1610.92212	-591.92548	36.48913	1557.16846	-401.12976	35.65868	1621.1803	-461.66013	1807.13489	1505.53052	2845.25122	1033.90796	-3360.42261
59	0.58	-346.83606	1745.7948	1414.89026	-345.91187	1729.42261	1558.63525	-472.92493	1663.36755	1407.44714	-484.30118	1645.03284	1549.76672	-518.88678	1525.02612	1491.07117	-574.492	1254.25098	1520.58423	-381.64056	1457.89807	1469.26355	-331.2973	1284.96326	1486.87329	-570.47034	1359.88782	1575.60132	-470.77106	1489.69165	1307.74023	-523.44604	1296.10437	1233.02515	-552.82062	1160.18933	1220.39563	-573.36633	1032.21216	1198.75635	-539.258	896.40833	1202.51807	-592.11279	911.20551	1186.07495	-587.55414	846.11761	1171.44824	-421.24112	1506.75684	1668.32043	-424.97345	1328.83228	1777.69019	-390.96783	1188.92041	1814.71802	-338.6239	1081.67615	1839.55823	-269.60638	964.76874	1824.47852	-309.74863	956.91888	1864.64636	-260.20602	903.73169	1867.1145	-358.34326	991.15558	1377.99194	-341.38864	976.92297	1632.40588	-561.55084	1033.19153	1468.46021	-556.64771	1035.61108	1583.83875	-350.39163	690.86078	1310.64905	-312.42004	498.35822	1339.18982	-370.9913	315.3902	1355.6698	-365.04758	92.14185	1386.36523	-383.64093	65.60435	1446.69482	-224.6702	52.40652	1335.18042	-429.89841	669.70673	1689.99719	-454.13867	460.45416	1645.40491	-512.32825	280.56659	1651.67346	-550.39331	90.47258	1610.63977	-591.59723	36.44312	1556.85938	-401.15289	35.63257	1621.29175	-451.90222	1806.58191	1504.08325	2845.98047	1033.82446	-3357.38477
60	0.59	-337.30106	1744.80322	1413.35706	-335.9996	1728.93958	1557.16809	-463.43768	1662.29431	1406.59863	-474.38843	1644.51477	1549.05981	-509.08969	1524.36365	1490.63708	-565.40527	1253.77893	1519.9873	-371.85822	1457.02771	1468.89966	-321.8446	1283.94861	1487.0387	-561.05133	1359.76904	1575.78589	-461.23691	1488.41895	1307.38171	-516.86157	1295.55225	1233.05042	-547.42273	1159.88	1220.25708	-569.09833	1032.07385	1198.70032	-535.44189	895.92572	1202.38	-587.94934	911.05676	1186.41663	-584.37445	846.16296	1171.78003	-411.36838	1506.62219	1667.67944	-413.54504	1328.99902	1777.58435	-377.70557	1189.46521	1815.16528	-323.15421	1083.11951	1839.60034	-252.65952	967.11621	1823.24158	-292.16699	958.69147	1864.03809	-241.817	906.37921	1865.77393	-348.43512	990.21796	1377.38391	-333.16992	975.79303	1632.37122	-552.40729	1032.12952	1467.50183	-548.16724	1034.75635	1582.76282	-339.75482	690.39423	1310.68884	-300.66904	497.46765	1339.55127	-349.50998	310.89969	1353.11731	-331.09976	87.65578	1380.80652	-348.67636	59.69556	1441.16016	-187.84671	55.88575	1330.81946	-424.89371	669.18518	1689.49194	-451.20892	460.11639	1644.91602	-510.85629	280.73676	1651.22937	-550.09949	90.72549	1610.35083	-591.47791	36.67296	1556.53284	-401.14716	35.61045	1621.4386	-442.31839	1805.83899	1502.54333	2845.15356	1033.79626	-3360.26392
61	0.6	-327.78546	1743.65491	1411.83093	-326.09448	1728.29016	1555.66919	-453.90363	1661.06189	1405.59143	-464.44897	1643.75903	1548.18054	-499.27521	1523.64636	1490.11047	-556.20239	1253.06519	1519.16675	-362.07214	1455.94006	1468.39111	-312.36523	1282.77246	1486.9801	-551.9585	1359.2428	1575.36267	-451.50827	1487.01819	1306.88245	-509.48755	1294.62976	1233.47729	-541.20477	1159.45569	1220.39905	-563.77466	1031.78601	1198.95264	-531.5437	895.41278	1202.19019	-583.81012	910.82648	1186.77759	-580.56628	845.86127	1172.24072	-401.4216	1506.20154	1667.03833	-402.2554	1328.9696	1777.43567	-364.57062	1189.90564	1815.55273	-308.05573	1084.31226	1839.3313	-235.86971	969.6507	1822.0509	-274.7811	960.37616	1863.15283	-223.30431	909.0592	1864.33691	-338.52039	989.20441	1376.67224	-325.05222	974.79462	1632.1593	-543.11621	1030.91516	1466.45044	-539.71655	1033.729	1581.61121	-329.2468	689.59644	1310.94849	-289.12991	496.40646	1339.62476	-328.13559	306.93094	1350.53369	-297.57126	84.29515	1375.26196	-314.99969	54.81026	1434.40015	-152.01965	60.78291	1326.67224	-419.76221	668.59747	1688.92444	-448.17593	459.73187	1644.58508	-509.44815	280.92535	1650.79492	-549.88654	91.03165	1610.05688	-591.38373	37.00266	1556.21399	-401.1749	35.54774	1621.54602	-432.47128	1805.03979	1501.16565	2845.18628	1034.0835	-3360.13965
62	0.61	-318.241	1742.37439	1410.2157	-316.16788	1727.47571	1554.10571	-444.24368	1659.66736	1404.5625	-454.49951	1642.82666	1547.25195	-489.41599	1522.69714	1489.396	-546.96204	1252.24438	1518.18359	-352.22702	1454.75696	1467.79358	-302.84659	1281.4635	1486.86072	-542.20319	1358.63586	1575.06348	-441.77783	1485.6123	1306.34888	-502.1395	1293.79736	1233.36047	-534.9082	1159.03418	1220.328	-558.92255	1031.12585	1198.51135	-526.87708	894.95776	1202.35864	-579.48877	910.63983	1187.02966	-576.56409	845.36572	1172.74976	-391.47937	1505.61304	1666.26099	-391.06006	1328.75464	1777.11584	-351.56229	1190.17676	1815.75781	-293.30203	1085.22717	1838.53625	-219.09755	972.07684	1820.65564	-257.50024	961.97906	1862.13623	-205.10217	911.63446	1862.73083	-328.50653	988.20325	1375.94116	-317.03214	973.6778	1631.7063	-533.77155	1029.48621	1465.25342	-531.1521	1032.47546	1580.24451	-319.2699	688.19092	1310.82336	-277.69153	495.3168	1339.4137	-307.34598	303.65631	1347.86475	-264.84494	82.1995	1369.82788	-281.20593	51.11343	1428.84302	-117.26868	66.65289	1323.26965	-414.80649	667.97302	1688.51172	-444.89078	459.68268	1644.38916	-508.00528	281.15826	1650.31653	-549.67645	91.38361	1609.68982	-591.40088	37.16155	1555.60864	-401.20865	35.43354	1621.65906	-422.92865	1803.90686	1499.45288	2845.25171	1033.71497	-3360.32666
